<?xml version="1.0" encoding="UTF-8"?>
<svg xmlns="http://www.w3.org/2000/svg" width="426.4" height="1632" viewBox="0 0 426.4 1632">
<defs>
<marker id="arrow-end" markerWidth="10" markerHeight="7" refX="8" refY="3.5" orient="auto" markerUnits="strokeWidth"><path d="M0,0 L10,3.5 L0,7 z" fill="#3d5a80"/></marker>
<marker id="arrow-start" markerWidth="10" markerHeight="7" refX="2" refY="3.5" orient="auto" markerUnits="strokeWidth"><path d="M10,0 L0,3.5 L10,7 z" fill="#3d5a80"/></marker>
</defs>
<rect x="0" y="0" width="426.4" height="1632" fill="#ffffff"/>
<rect x="40" y="40" width="80" height="56" rx="6" ry="6" fill="#f8f9fa" stroke="#3a6ea5" stroke-width="1.8"/>
<rect x="40" y="176" width="80" height="56" rx="6" ry="6" fill="#f8f9fa" stroke="#3a6ea5" stroke-width="1.8"/>
<rect x="40" y="312" width="80" height="56" rx="6" ry="6" fill="#f8f9fa" stroke="#3a6ea5" stroke-width="1.8"/>
<rect x="40" y="448" width="80" height="56" rx="6" ry="6" fill="#f8f9fa" stroke="#3a6ea5" stroke-width="1.8"/>
<rect x="243.2" y="448" width="143.2" height="56" rx="6" ry="6" fill="#f8f9fa" stroke="#3a6ea5" stroke-width="1.8"/>
<rect x="40" y="584" width="80" height="56" rx="6" ry="6" fill="#f8f9fa" stroke="#3a6ea5" stroke-width="1.8"/>
<rect x="40" y="720" width="80" height="56" rx="6" ry="6" fill="#f8f9fa" stroke="#3a6ea5" stroke-width="1.8"/>
<rect x="40" y="856" width="80" height="56" rx="6" ry="6" fill="#f8f9fa" stroke="#3a6ea5" stroke-width="1.8"/>
<rect x="40" y="992" width="80" height="56" rx="6" ry="6" fill="#f8f9fa" stroke="#3a6ea5" stroke-width="1.8"/>
<rect x="40" y="1128" width="80" height="56" rx="6" ry="6" fill="#f8f9fa" stroke="#3a6ea5" stroke-width="1.8"/>
<rect x="40" y="1264" width="80" height="56" rx="6" ry="6" fill="#f8f9fa" stroke="#3a6ea5" stroke-width="1.8"/>
<rect x="40" y="1400" width="80" height="56" rx="6" ry="6" fill="#f8f9fa" stroke="#3a6ea5" stroke-width="1.8"/>
<rect x="40" y="1536" width="80" height="56" rx="6" ry="6" fill="#f8f9fa" stroke="#3a6ea5" stroke-width="1.8"/>
<line x1="80" y1="96" x2="80" y2="176" stroke="#3d5a80" stroke-width="2" marker-end="url(#arrow-end)"/>
<line x1="80" y1="232" x2="80" y2="312" stroke="#3d5a80" stroke-width="2" marker-end="url(#arrow-end)"/>
<line x1="80" y1="368" x2="80" y2="448" stroke="#3d5a80" stroke-width="2" marker-end="url(#arrow-end)"/>
<line x1="80" y1="368" x2="314.8" y2="448" stroke="#3d5a80" stroke-width="2" marker-end="url(#arrow-end)"/>
<line x1="80" y1="504" x2="80" y2="584" stroke="#3d5a80" stroke-width="2" marker-end="url(#arrow-end)"/>
<line x1="80" y1="640" x2="80" y2="720" stroke="#3d5a80" stroke-width="2" marker-end="url(#arrow-end)"/>
<line x1="80" y1="776" x2="80" y2="856" stroke="#3d5a80" stroke-width="2" marker-end="url(#arrow-end)"/>
<line x1="80" y1="912" x2="80" y2="992" stroke="#3d5a80" stroke-width="2" marker-end="url(#arrow-end)"/>
<line x1="80" y1="1048" x2="80" y2="1128" stroke="#3d5a80" stroke-width="2" marker-end="url(#arrow-end)"/>
<line x1="80" y1="1184" x2="80" y2="1264" stroke="#3d5a80" stroke-width="2" marker-end="url(#arrow-end)"/>
<line x1="80" y1="1184" x2="80" y2="1400" stroke="#3d5a80" stroke-width="2" marker-end="url(#arrow-end)"/>
<line x1="80" y1="1320" x2="80" y2="1400" stroke="#3d5a80" stroke-width="2" marker-end="url(#arrow-end)"/>
<line x1="80" y1="1456" x2="80" y2="1536" stroke="#3d5a80" stroke-width="2" marker-end="url(#arrow-end)"/>
<text x="80" y="402" text-anchor="middle" fill="#1b263b" font-family="Inter, -apple-system, BlinkMacSystemFont, Segoe UI, sans-serif" font-size="12" font-weight="400">Yes: Fork</text>
<text x="197.4" y="402" text-anchor="middle" fill="#1b263b" font-family="Inter, -apple-system, BlinkMacSystemFont, Segoe UI, sans-serif" font-size="12" font-weight="400">No: Normal</text>
<text x="80" y="1218" text-anchor="middle" fill="#1b263b" font-family="Inter, -apple-system, BlinkMacSystemFont, Segoe UI, sans-serif" font-size="12" font-weight="400">Yes</text>
<text x="80" y="1286" text-anchor="middle" fill="#1b263b" font-family="Inter, -apple-system, BlinkMacSystemFont, Segoe UI, sans-serif" font-size="12" font-weight="400">No</text>
<text x="80" y="72.55" text-anchor="middle" fill="#1b263b" font-family="Inter, -apple-system, BlinkMacSystemFont, Segoe UI, sans-serif" font-size="13" font-weight="400">Start</text>
<text x="80" y="208.55" text-anchor="middle" fill="#1b263b" font-family="Inter, -apple-system, BlinkMacSystemFont, Segoe UI, sans-serif" font-size="13" font-weight="400">B</text>
<text x="80" y="344.55" text-anchor="middle" fill="#1b263b" font-family="Inter, -apple-system, BlinkMacSystemFont, Segoe UI, sans-serif" font-size="13" font-weight="400">C</text>
<text x="80" y="480.55" text-anchor="middle" fill="#1b263b" font-family="Inter, -apple-system, BlinkMacSystemFont, Segoe UI, sans-serif" font-size="13" font-weight="400">D</text>
<text x="314.8" y="480.55" text-anchor="middle" fill="#1b263b" font-family="Inter, -apple-system, BlinkMacSystemFont, Segoe UI, sans-serif" font-size="13" font-weight="400">Standard Release</text>
<text x="80" y="616.55" text-anchor="middle" fill="#1b263b" font-family="Inter, -apple-system, BlinkMacSystemFont, Segoe UI, sans-serif" font-size="13" font-weight="400">F</text>
<text x="80" y="752.55" text-anchor="middle" fill="#1b263b" font-family="Inter, -apple-system, BlinkMacSystemFont, Segoe UI, sans-serif" font-size="13" font-weight="400">G</text>
<text x="80" y="888.55" text-anchor="middle" fill="#1b263b" font-family="Inter, -apple-system, BlinkMacSystemFont, Segoe UI, sans-serif" font-size="13" font-weight="400">H</text>
<text x="80" y="1024.55" text-anchor="middle" fill="#1b263b" font-family="Inter, -apple-system, BlinkMacSystemFont, Segoe UI, sans-serif" font-size="13" font-weight="400">I</text>
<text x="80" y="1160.55" text-anchor="middle" fill="#1b263b" font-family="Inter, -apple-system, BlinkMacSystemFont, Segoe UI, sans-serif" font-size="13" font-weight="400">J</text>
<text x="80" y="1296.55" text-anchor="middle" fill="#1b263b" font-family="Inter, -apple-system, BlinkMacSystemFont, Segoe UI, sans-serif" font-size="13" font-weight="400">K</text>
<text x="80" y="1432.55" text-anchor="middle" fill="#1b263b" font-family="Inter, -apple-system, BlinkMacSystemFont, Segoe UI, sans-serif" font-size="13" font-weight="400">L</text>
<text x="80" y="1568.55" text-anchor="middle" fill="#1b263b" font-family="Inter, -apple-system, BlinkMacSystemFont, Segoe UI, sans-serif" font-size="13" font-weight="400">Done</text>
</svg>
